HIERARCHY
ROOT mixamorig:Hips
{
  OFFSET 0 0 0.9800
  CHANNELS 6 Xposition Yposition Zposition Xrotation Yrotation Zrotation
  JOINT mixamorig:Spine
  {
    OFFSET 0 0 0.0800
    CHANNELS 3 Xrotation Yrotation Zrotation
    JOINT mixamorig:Spine1
    {
      OFFSET 0 0 0.1200
      CHANNELS 3 Xrotation Yrotation Zrotation
      JOINT mixamorig:Spine2
      {
        OFFSET 0 0 0.1200
        CHANNELS 3 Xrotation Yrotation Zrotation
        JOINT mixamorig:Neck
        {
          OFFSET 0 0 0.1600
          CHANNELS 3 Xrotation Yrotation Zrotation
          JOINT mixamorig:Head
          {
            OFFSET 0 -0.0100 0.0900
            CHANNELS 3 Xrotation Yrotation Zrotation
            End Site
            {
              OFFSET 0 0 0.1800
            }
          }
        }
        JOINT mixamorig:LeftShoulder
        {
          OFFSET 0.0300 0 0.1200
          CHANNELS 3 Xrotation Yrotation Zrotation
          JOINT mixamorig:LeftArm
          {
            OFFSET 0.1300 0 0
            CHANNELS 3 Xrotation Yrotation Zrotation
            JOINT mixamorig:LeftForeArm
            {
              OFFSET 0.2700 0 0
              CHANNELS 3 Xrotation Yrotation Zrotation
              JOINT mixamorig:LeftHand
              {
                OFFSET 0.2500 0 0
                CHANNELS 3 Xrotation Yrotation Zrotation
                JOINT mixamorig:LeftHandThumb1
                {
                  OFFSET 0.0250 -0.0300 -0.0100
                  CHANNELS 3 Xrotation Yrotation Zrotation
                  JOINT mixamorig:LeftHandThumb2
                  {
                    OFFSET 0.0300 -0.0200 0
                    CHANNELS 3 Xrotation Yrotation Zrotation
                    JOINT mixamorig:LeftHandThumb3
                    {
                      OFFSET 0.0250 -0.0150 0
                      CHANNELS 3 Xrotation Yrotation Zrotation
                      JOINT mixamorig:LeftHandThumb4
                      {
                        OFFSET 0.0200 -0.0100 0
                        CHANNELS 3 Xrotation Yrotation Zrotation
                        End Site
                        {
                          OFFSET 0.0060 0 0
                        }
                      }
                    }
                  }
                }
                JOINT mixamorig:LeftHandIndex1
                {
                  OFFSET 0.0900 -0.0250 0
                  CHANNELS 3 Xrotation Yrotation Zrotation
                  JOINT mixamorig:LeftHandIndex2
                  {
                    OFFSET 0.0400 0 0
                    CHANNELS 3 Xrotation Yrotation Zrotation
                    JOINT mixamorig:LeftHandIndex3
                    {
                      OFFSET 0.0250 0 0
                      CHANNELS 3 Xrotation Yrotation Zrotation
                      JOINT mixamorig:LeftHandIndex4
                      {
                        OFFSET 0.0200 0 0
                        CHANNELS 3 Xrotation Yrotation Zrotation
                        End Site
                        {
                          OFFSET 0.0060 0 0
                        }
                      }
                    }
                  }
                }
                JOINT mixamorig:LeftHandMiddle1
                {
                  OFFSET 0.0950 -0.0080 0
                  CHANNELS 3 Xrotation Yrotation Zrotation
                  JOINT mixamorig:LeftHandMiddle2
                  {
                    OFFSET 0.0450 0 0
                    CHANNELS 3 Xrotation Yrotation Zrotation
                    JOINT mixamorig:LeftHandMiddle3
                    {
                      OFFSET 0.0280 0 0
                      CHANNELS 3 Xrotation Yrotation Zrotation
                      JOINT mixamorig:LeftHandMiddle4
                      {
                        OFFSET 0.0210 0 0
                        CHANNELS 3 Xrotation Yrotation Zrotation
                        End Site
                        {
                          OFFSET 0.0060 0 0
                        }
                      }
                    }
                  }
                }
                JOINT mixamorig:LeftHandRing1
                {
                  OFFSET 0.0900 0.0090 0
                  CHANNELS 3 Xrotation Yrotation Zrotation
                  JOINT mixamorig:LeftHandRing2
                  {
                    OFFSET 0.0420 0 0
                    CHANNELS 3 Xrotation Yrotation Zrotation
                    JOINT mixamorig:LeftHandRing3
                    {
                      OFFSET 0.0260 0 0
                      CHANNELS 3 Xrotation Yrotation Zrotation
                      JOINT mixamorig:LeftHandRing4
                      {
                        OFFSET 0.0200 0 0
                        CHANNELS 3 Xrotation Yrotation Zrotation
                        End Site
                        {
                          OFFSET 0.0060 0 0
                        }
                      }
                    }
                  }
                }
                JOINT mixamorig:LeftHandPinky1
                {
                  OFFSET 0.0800 0.0250 0
                  CHANNELS 3 Xrotation Yrotation Zrotation
                  JOINT mixamorig:LeftHandPinky2
                  {
                    OFFSET 0.0330 0 0
                    CHANNELS 3 Xrotation Yrotation Zrotation
                    JOINT mixamorig:LeftHandPinky3
                    {
                      OFFSET 0.0200 0 0
                      CHANNELS 3 Xrotation Yrotation Zrotation
                      JOINT mixamorig:LeftHandPinky4
                      {
                        OFFSET 0.0170 0 0
                        CHANNELS 3 Xrotation Yrotation Zrotation
                        End Site
                        {
                          OFFSET 0.0060 0 0
                        }
                      }
                    }
                  }
                }
                End Site
                {
                  OFFSET 0.0800 0 0
                }
              }
            }
          }
        }
        JOINT mixamorig:RightShoulder
        {
          OFFSET -0.0300 0 0.1200
          CHANNELS 3 Xrotation Yrotation Zrotation
          JOINT mixamorig:RightArm
          {
            OFFSET -0.1300 0 0
            CHANNELS 3 Xrotation Yrotation Zrotation
            JOINT mixamorig:RightForeArm
            {
              OFFSET -0.2700 0 0
              CHANNELS 3 Xrotation Yrotation Zrotation
              JOINT mixamorig:RightHand
              {
                OFFSET -0.2500 0 0
                CHANNELS 3 Xrotation Yrotation Zrotation
                JOINT mixamorig:RightHandThumb1
                {
                  OFFSET -0.0250 -0.0300 -0.0100
                  CHANNELS 3 Xrotation Yrotation Zrotation
                  JOINT mixamorig:RightHandThumb2
                  {
                    OFFSET -0.0300 -0.0200 0
                    CHANNELS 3 Xrotation Yrotation Zrotation
                    JOINT mixamorig:RightHandThumb3
                    {
                      OFFSET -0.0250 -0.0150 0
                      CHANNELS 3 Xrotation Yrotation Zrotation
                      JOINT mixamorig:RightHandThumb4
                      {
                        OFFSET -0.0200 -0.0100 0
                        CHANNELS 3 Xrotation Yrotation Zrotation
                        End Site
                        {
                          OFFSET -0.0060 0 0
                        }
                      }
                    }
                  }
                }
                JOINT mixamorig:RightHandIndex1
                {
                  OFFSET -0.0900 -0.0250 0
                  CHANNELS 3 Xrotation Yrotation Zrotation
                  JOINT mixamorig:RightHandIndex2
                  {
                    OFFSET -0.0400 0 0
                    CHANNELS 3 Xrotation Yrotation Zrotation
                    JOINT mixamorig:RightHandIndex3
                    {
                      OFFSET -0.0250 0 0
                      CHANNELS 3 Xrotation Yrotation Zrotation
                      JOINT mixamorig:RightHandIndex4
                      {
                        OFFSET -0.0200 0 0
                        CHANNELS 3 Xrotation Yrotation Zrotation
                        End Site
                        {
                          OFFSET -0.0060 0 0
                        }
                      }
                    }
                  }
                }
                JOINT mixamorig:RightHandMiddle1
                {
                  OFFSET -0.0950 -0.0080 0
                  CHANNELS 3 Xrotation Yrotation Zrotation
                  JOINT mixamorig:RightHandMiddle2
                  {
                    OFFSET -0.0450 0 0
                    CHANNELS 3 Xrotation Yrotation Zrotation
                    JOINT mixamorig:RightHandMiddle3
                    {
                      OFFSET -0.0280 0 0
                      CHANNELS 3 Xrotation Yrotation Zrotation
                      JOINT mixamorig:RightHandMiddle4
                      {
                        OFFSET -0.0210 0 0
                        CHANNELS 3 Xrotation Yrotation Zrotation
                        End Site
                        {
                          OFFSET -0.0060 0 0
                        }
                      }
                    }
                  }
                }
                JOINT mixamorig:RightHandRing1
                {
                  OFFSET -0.0900 0.0090 0
                  CHANNELS 3 Xrotation Yrotation Zrotation
                  JOINT mixamorig:RightHandRing2
                  {
                    OFFSET -0.0420 0 0
                    CHANNELS 3 Xrotation Yrotation Zrotation
                    JOINT mixamorig:RightHandRing3
                    {
                      OFFSET -0.0260 0 0
                      CHANNELS 3 Xrotation Yrotation Zrotation
                      JOINT mixamorig:RightHandRing4
                      {
                        OFFSET -0.0200 0 0
                        CHANNELS 3 Xrotation Yrotation Zrotation
                        End Site
                        {
                          OFFSET -0.0060 0 0
                        }
                      }
                    }
                  }
                }
                JOINT mixamorig:RightHandPinky1
                {
                  OFFSET -0.0800 0.0250 0
                  CHANNELS 3 Xrotation Yrotation Zrotation
                  JOINT mixamorig:RightHandPinky2
                  {
                    OFFSET -0.0330 0 0
                    CHANNELS 3 Xrotation Yrotation Zrotation
                    JOINT mixamorig:RightHandPinky3
                    {
                      OFFSET -0.0200 0 0
                      CHANNELS 3 Xrotation Yrotation Zrotation
                      JOINT mixamorig:RightHandPinky4
                      {
                        OFFSET -0.0170 0 0
                        CHANNELS 3 Xrotation Yrotation Zrotation
                        End Site
                        {
                          OFFSET -0.0060 0 0
                        }
                      }
                    }
                  }
                }
                End Site
                {
                  OFFSET -0.0800 0 0
                }
              }
            }
          }
        }
      }
    }
  }
  JOINT mixamorig:LeftUpLeg
  {
    OFFSET 0.0900 0 -0.0600
    CHANNELS 3 Xrotation Yrotation Zrotation
    JOINT mixamorig:LeftLeg
    {
      OFFSET 0 0 -0.4300
      CHANNELS 3 Xrotation Yrotation Zrotation
      JOINT mixamorig:LeftFoot
      {
        OFFSET 0 0 -0.4100
        CHANNELS 3 Xrotation Yrotation Zrotation
        JOINT mixamorig:LeftToeBase
        {
          OFFSET 0 -0.1200 -0.0700
          CHANNELS 3 Xrotation Yrotation Zrotation
          End Site
          {
            OFFSET 0 -0.0500 0
          }
        }
      }
    }
  }
  JOINT mixamorig:RightUpLeg
  {
    OFFSET -0.0900 0 -0.0600
    CHANNELS 3 Xrotation Yrotation Zrotation
    JOINT mixamorig:RightLeg
    {
      OFFSET 0 0 -0.4300
      CHANNELS 3 Xrotation Yrotation Zrotation
      JOINT mixamorig:RightFoot
      {
        OFFSET 0 0 -0.4100
        CHANNELS 3 Xrotation Yrotation Zrotation
        JOINT mixamorig:RightToeBase
        {
          OFFSET 0 -0.1200 -0.0700
          CHANNELS 3 Xrotation Yrotation Zrotation
          End Site
          {
            OFFSET 0 -0.0500 0
          }
        }
      }
    }
  }
}
MOTION
Frames: 7
Frame Time: 0.0333333
0 -0.5000 0.9800 0 0 0 0 0 0 8.0000 0 0 0 0 0 -5.0000 0 0 -10.0000 0 0 0 0 0 0 60.0000 0 0 0 -70.0000 0 15.0000 0 0 0 0 0 0 0 0 0 0 0 0 0 0 30.0000 0 0 30.0000 0 0 30.0000 0 0 0 0 0 0 0 0 0 0 0 0 0 0 0 0 0 0 0 0 0 0 0 0 0 0 0 0 0 0 0 0 0 0 0 0 0 0 0 0 0 0 0 0 -70.0000 0 0 0 45.0000 15.0000 0 0 0 0 0 0 0 0 0 0 0 0 0 0 0 0 0 0 0 0 0 0 0 0 0 0 0 0 0 0 0 0 0 0 0 0 0 0 0 0 0 0 0 0 0 0 0 0 0 0 0 0 0 0 0 0 0 0 0 0 0 0 -20.0000 0 0 50.0000 0 0 -10.0000 0 0 0 0 0 -20.0000 0 0 50.0000 0 0 0 0 0 0 0 0
0 -0.5167 0.9862 0 0 -1.0453 0 0 0 7.3728 0 0 0 0 0.6272 -4.9726 0 0 -9.9306 0.5413 -3.0888 0 0 0 -4.5153 59.8970 5.2156 0 0 -66.8641 -2.1634 14.9077 0.5568 0 0 0 0 0 0 0 0 0 0 0 0 0 26.8641 0 0 26.8641 0 0 26.8641 0 0 0 0 0 0 0 0 0 0 0 0 0 0 0 0 0 0 0 0 0 0 0 0 0 0 0 0 0 0 0 0 0 0 0 0 0 0 0 0 0 0 0 -5.7234 -69.8955 -6.0921 0 0 45.0822 14.9178 0 0 0 0 0 0 0 0 0 0 0 0 0 0 0 0 0 0 0 0 0 0 0 0 0 0 0 0 0 0 0 0 0 0 0 0 0 0 0 0 0 0 0 0 0 0 0 0 0 0 0 0 0 0 0 0 0 0 0 0 0 0 -17.3868 0 0 47.3868 0 0 -9.9452 0 0 0 0 0 -22.6132 0 0 52.6132 0 0 0 0 0 0 0 0
0 -0.5333 0.9922 0 0 -2.0791 0 0 0 6.7525 0 0 0 0 1.2475 -4.8907 0 0 -9.7247 1.0576 -6.1474 0 0 0 -8.9178 59.5944 10.3114 0 0 -63.7626 -4.2979 14.6327 1.0877 0 0 0 0 0 0 0 0 0 0 0 0 0 23.7626 0 0 23.7626 0 0 23.7626 0 0 0 0 0 0 0 0 0 0 0 0 0 0 0 0 0 0 0 0 0 0 0 0 0 0 0 0 0 0 0 0 0 0 0 0 0 0 0 0 0 0 0 -11.2671 -69.5896 -12.0006 0 0 45.3278 14.6722 0 0 0 0 0 0 0 0 0 0 0 0 0 0 0 0 0 0 0 0 0 0 0 0 0 0 0 0 0 0 0 0 0 0 0 0 0 0 0 0 0 0 0 0 0 0 0 0 0 0 0 0 0 0 0 0 0 0 0 0 0 0 -14.8022 0 0 44.8022 0 0 -9.7815 0 0 0 0 0 -25.1978 0 0 55.1978 0 0 0 0 0 0 0 0
0 -0.5500 0.9976 0 0 -3.0902 0 0 0 6.1459 0 0 0 0 1.8541 -4.7553 0 0 -9.3886 1.5253 -9.1453 0 0 0 -13.1068 59.1112 15.1797 0 0 -60.7295 -6.3754 14.1812 1.5680 0 0 0 0 0 0 0 0 0 0 0 0 0 20.7295 0 0 20.7295 0 0 20.7295 0 0 0 0 0 0 0 0 0 0 0 0 0 0 0 0 0 0 0 0 0 0 0 0 0 0 0 0 0 0 0 0 0 0 0 0 0 0 0 0 0 0 0 -16.4776 -69.1043 -17.5684 0 0 45.7342 14.2658 0 0 0 0 0 0 0 0 0 0 0 0 0 0 0 0 0 0 0 0 0 0 0 0 0 0 0 0 0 0 0 0 0 0 0 0 0 0 0 0 0 0 0 0 0 0 0 0 0 0 0 0 0 0 0 0 0 0 0 0 0 0 -12.2746 0 0 42.2746 0 0 -9.5106 0 0 0 0 0 -27.7254 0 0 57.7254 0 0 0 0 0 0 0 0
0 -0.5667 1.0023 0 0 -4.0674 0 0 0 5.5596 0 0 0 0 2.4404 -4.5677 0 0 -8.9324 1.9231 -12.0519 0 0 0 -17.0026 58.4762 19.7339 0 0 -57.7979 -8.3697 13.5627 1.9761 0 0 0 0 0 0 0 0 0 0 0 0 0 17.7979 0 0 17.7979 0 0 17.7979 0 0 0 0 0 0 0 0 0 0 0 0 0 0 0 0 0 0 0 0 0 0 0 0 0 0 0 0 0 0 0 0 0 0 0 0 0 0 0 0 0 0 0 -21.2447 -68.4719 -22.6814 0 0 46.2968 13.7032 0 0 0 0 0 0 0 0 0 0 0 0 0 0 0 0 0 0 0 0 0 0 0 0 0 0 0 0 0 0 0 0 0 0 0 0 0 0 0 0 0 0 0 0 0 0 0 0 0 0 0 0 0 0 0 0 0 0 0 0 0 0 -9.8316 0 0 39.8316 0 0 -9.1355 0 0 0 0 0 -30.1684 0 0 60.1684 0 0 0 0 0 0 0 0
0 -0.5833 1.0060 0 0 -5.0000 0 0 0 5.0000 0 0 0 0 3.0000 -4.3301 0 0 -8.3694 2.2335 -14.8366 0 0 0 -20.5502 57.7252 23.9120 0 0 -55.0000 -10.2571 12.7897 2.2940 0 0 0 0 0 0 0 0 0 0 0 0 0 15.0000 0 0 15.0000 0 0 15.0000 0 0 0 0 0 0 0 0 0 0 0 0 0 0 0 0 0 0 0 0 0 0 0 0 0 0 0 0 0 0 0 0 0 0 0 0 0 0 0 0 0 0 0 -25.5056 -67.7313 -27.2732 0 0 47.0096 12.9904 0 0 0 0 0 0 0 0 0 0 0 0 0 0 0 0 0 0 0 0 0 0 0 0 0 0 0 0 0 0 0 0 0 0 0 0 0 0 0 0 0 0 0 0 0 0 0 0 0 0 0 0 0 0 0 0 0 0 0 0 0 0 -7.5000 0 0 37.5000 0 0 -8.6603 0 0 0 0 0 -32.5000 0 0 62.5000 0 0 0 0 0 0 0 0
0 -0.6000 1.0085 0 0 -5.8779 0 0 0 4.4733 0 0 0 0 3.5267 -4.0451 0 0 -7.7147 2.4433 -17.4688 0 0 0 -23.7190 56.8979 27.6766 0 0 -52.3664 -12.0167 11.8770 2.5085 0 0 0 0 0 0 0 0 0 0 0 0 0 12.3664 0 0 12.3664 0 0 12.3664 0 0 0 0 0 0 0 0 0 0 0 0 0 0 0 0 0 0 0 0 0 0 0 0 0 0 0 0 0 0 0 0 0 0 0 0 0 0 0 0 0 0 0 -29.2387 -66.9236 -31.3187 0 0 47.8647 12.1353 0 0 0 0 0 0 0 0 0 0 0 0 0 0 0 0 0 0 0 0 0 0 0 0 0 0 0 0 0 0 0 0 0 0 0 0 0 0 0 0 0 0 0 0 0 0 0 0 0 0 0 0 0 0 0 0 0 0 0 0 0 0 -5.3054 0 0 35.3054 0 0 -8.0902 0 0 0 0 0 -34.6946 0 0 64.6946 0 0 0 0 0 0 0 0
